<svg xmlns="http://www.w3.org/2000/svg" width="424" height="109">
  <g fill="none" fill-rule="evenodd">
    <path fill="#12202E" d="M9.40173913 68.730308c-3.46493762-2.4799489-5.903138-6.4405474-5.62501323-12.8572262.38232136-8.8242263 7.7377996-18.9866862 22.9857694-20.4474453 1.3329149-.1280949 2.6602193-.1933358 3.9450435-.1933358 2.2426313 0 4.4051115.1957227 6.4641965.5823942l.0304575-.6890073 62.7231456-6.0085256 6.7992286 6.3029052.638004-7.0157811 27.729119-2.6549854c.843191-.0811533 1.67997-.1225255 2.486291-.1225255 2.009391 0 3.883327.2458467 5.610586.733562l.060114-1.3931314 45.62769-4.3711386-.00481.1265036.054503-.0182993 18.077308 18.060584-.852809 17.8752044-12.247107 1.4090437-1.627872 34.473438-46.266495 4.7108686-3.120287-3.2135109-.016031 3.5325547-43.2151377 4.399781-3.15876-3.223854.0016031 3.534146-25.0264197 1.948474-6.6309111.667526-4.3105331-4.449109c-3.5635237 4.609029-9.6958942 7.525773-17.7005974 8.284-10.1239017.959518-16.9207259-1.328687-21.8035387-5.333044L0 82.2534686 9.40173913 68.730308z"/>
    <path fill="#12202E" d="M375.970739 70.5600758c.156295.1169562.315796.2299343.479304.3349562 4.012371 2.5817884 8.98335 3.9924234 14.537028 3.993219h.001603c1.062004 0 2.152862-.0525109 3.242118-.1575328 16.432605-1.5737373 28.852839-14.0928248 29.53172-29.7681387.257285-5.9584015-1.191047-11.2596205-4.212749-15.5209635L398.105302 8.0322656c-4.502896-4.66631386-11.06648-7.23616787-18.480469-7.23616787-1.063607 0-2.154465.05251095-3.24372.15753285-6.054624.57921168-11.695667 2.71624817-16.396537 6.03239416l-3.589973-3.30818978.001603-.03978103-20.603675 1.9739343-.31259 7.20036497c-4.219161-3.48640875-10.000469-5.38078102-16.825346-5.38078102-1.227917 0-2.498314.0620584-3.776726.18458394l-24.091055 2.30172993-.480106 11.16494165-10.5174438-9.627803-.0240454.01273.001603-.0238686-58.0326956 5.5597956-.029656.6890073c-2.0598865-.3866716-4.2215652-.5823942-6.4649981-.5823942-1.2848242 0-2.611327.0652409-3.9450435.1925402-15.2471682 1.4599635-22.60344797 11.6232189-22.98496782 20.4474452-.27812476 6.4166788 2.1592741 10.378073 5.62421172 12.8572263l-9.35204537 13.476219 21.16874107 21.2581824c4.8828128 4.0051533 11.6804385 6.2933577 21.8043402 5.3338395 8.0039017-.7582263 14.1362722-3.6749708 17.7013989-8.284l4.3097316 4.4483138 20.3752438-1.9834817.0528998-3.4856132s3.4553195 3.362292 11.4984953 2.324803l53.3815202-5.4141971c2.990442-.6325183 7.712952-2.0797518 12.324854-5.3497518l3.929815 3.7012262 20.216544-2.0503138v-7.4804234l4.625528 3.4577664z"/>
    <path fill="#FFF" d="M386.852631 27.3331423c-.283736 6.5471606-4.925293 12.1801533-11.724522 12.8309708-6.799229.6508176-10.989535-4.1348394-10.7058-10.682.282934-6.5463649 4.924492-12.1793576 11.72372-12.8309708 6.799229-.6508175 10.990337 4.1348395 10.706602 10.682zm-61.396643 5.8112117c-.256484 5.9130511-4.687244 11.5261533-11.767002 12.2048175l-6.729497.643657.960212-22.1755329 6.799228-.6508175c7.570284-.7248102 11.011176 3.6423504 10.737059 9.9778759zm-32.773838 7.3212993c-.195569 4.5048029-3.295017 8.376292-9.042661 8.9276569-5.818178.5569343-8.606639-2.7512555-8.41107-7.256854l1.17662-27.1736204-14.369512 1.3772189-37.218223 3.5651752-.080152 1.8585694c-3.913784-1.3262993-8.354964-1.7511606-13.135183-1.2928832-12.827403 1.2284379-19.746057 9.4631094-20.089905 17.4161313-.802314 18.5148833 25.47206 11.4418176 25.276491 15.9474161-.078548 1.8291314-2.632968 2.7751241-5.296393 3.0297226-6.308703.6046716-11.449603-1.5673722-14.808741-4.6098248l-7.81715 11.2643942c4.781823 4.0290219 11.45281 6.3339343 21.406791 5.380781 12.546873-1.2021825 20.446578-7.917219 20.894623-18.265854.755827-17.4582993-25.41355-11.1657372-25.221988-15.6005256.052098-1.1974087.862427-2.1863649 3.666117-2.4552846 4.416333-.4224745 9.606125.6237664 13.537543 3.3304671l2.799682-3.7736277.051297-.0047737 3.245323-4.3297665-1.493217 4.1618905 9.075523-.8688175-1.496423 34.5649343 14.158714-1.3565328 1.496424-34.5649343 8.949686-.8576789 1.772144-4.9893357-.209195 4.8397591-.662049 15.276708c-.502548 11.6152628 6.488242 19.4282555 22.259599 17.9173723 3.656499-.3508686 6.870563-1.119438 9.666238-2.232511l.127441-.0119343c1.466767-.5402262 5.292385-2.219781 8.70282-6.0594452 0 0-1.142155 2.9151533-3.552302 5.5661606l15.181444-1.4543942c10.264968-.9833869 18.885232-5.9751095 23.350457-14.0331533.019237-.0350073.036068-.0700146.055305-.1050219.240453-.4383868.464075-.8879124.678881-1.3438029 1.425088-3.0607518 1.856302-5.5876423 1.856302-5.5876423s.082556 4.4666131-1.890767 8.8663941l-.431214 9.9404818 14.159516-1.3565329.587509-13.5677153c3.425663 8.5004088 12.164552 13.1874088 22.99699 12.1499197 14.439244-1.3827883 26.011478-12.3058613 26.636658-26.7368248.624378-14.4317591-10.094246-23.21938686-24.53349-21.83659854C365.901901 5.154427 356.719776 11.5130255 352.501417 20.678573c-.668461 1.4814452-1.39383 3.4275328-1.894775 5.7332409 0 0-.050495-4.1237008 2.013399-9.6898613l.414382-9.56415333-14.159516 1.35653285-.580295 13.39586128c-3.404824-8.3022992-12.094019-12.1817445-23.109203-11.1267518l-21.310608 2.0375839-1.192651 27.6446278zm-160.312797 8.4409759l-8.621066.825854.319804-7.3921095 8.621066-.825854c2.383697-.2283431 4.578238.6826423 4.468431 3.2174891-.113013 2.6048613-2.404537 3.9462773-4.788235 4.1746204zm-49.4661318 13.991781l5.2819659-15.5782482 3.9706919 14.6919271-9.2526578.8863211zm-8.1032893-15.8392117L65.4711304 70.583308l.9834556-22.7237153 6.2365671-.5983066 4.4035085-5.9878394-2.2947297 5.7857518zm71.5317661-19.1895693l-.145074 3.3591095c-2.647395-1.8370876-6.255002-2.7464818-10.787554-2.312073l-24.953482 2.3900438-1.240741 28.660635 1.300053 10.8586278-2.092749-6.3625767-10.7218296-31.9346131-17.8039925 1.7058102v.0015912l-39.6011191 3.7911314-.0801512 1.859365c-3.9137845-1.3262993-8.3549641-1.7519562-13.1351834-1.2936788-12.8274026 1.2292335-19.74605667 9.4631094-20.08990545 17.416927C6.17765595 74.5240161 32.4520302 67.451746 32.2564612 71.9565489c-.0785482 1.829927-2.6329678 2.7751241-5.2963931 3.0305183-6.3087033.6046715-11.4496031-1.5665767-14.8087411-4.6098249L4.3341777 81.6416365C9.116 85.6706584 15.7869868 87.9747752 25.7409679 87.0216219c12.5468733-1.2013869 20.4465784-7.917219 20.8946238-18.265854.7558261-17.4582993-25.4135501-11.1657372-25.2219887-15.6005256.0520983-1.1974087.8624272-2.1863649 3.6661172-2.454489 4.4155312-.4232701 9.6053233.6229708 13.5375426 3.3304671l2.7996824-3.7744233.031259-.0023869 3.2533383-4.3401095-1.4964234 4.171438 9.0907524-.8704088-1.497225 34.5649343 9.8113119-.9396277 2.0598866-.1973139 2.2883176-.2187956 11.7036824-1.1210292 1.9204234-5.6528832 16.8221399-1.6111314 1.4451267 5.3298613 16.051085-1.5379343 9.671047-.9268978.640409-14.7826277 5.116053-.4893066 5.809361 14.1652263 16.121618-1.5450949-7.761845-15.8002263c3.794359-2.186365 8.67637-6.9306496 9.026631-15.0260876.034465-.7924379.013626-1.5649854-.049694-2.3200292l-.047289-.0095474s0-2.1290803-.913724-4.2183796c0 0 1.312877 1.1647883 2.25786 2.7122701l5.571312-.5338613-1.496423 34.5649343 14.158714-1.3565329 1.496424-34.5649343 12.477142-1.1950219.537013-12.3894014-39.183531 3.7537372z"/>
  </g>
</svg>
